<?xml version="1.0" encoding="UTF-8"?>
<svg id="PFADE" xmlns="http://www.w3.org/2000/svg" viewBox="0 0 168 168">
  <defs>
    <style>
      .cls-1 {
        fill: #e20c19;
      }

      .cls-1, .cls-2 {
        stroke-width: 0px;
      }

      .cls-2 {
        fill: #fff;
      }
    </style>
  </defs>
  <circle class="cls-1" cx="84" cy="84" r="80.97"/>
  <g>
    <path class="cls-2" d="m104.95,109.63c-5.98,0-11.55-2.33-15.68-6.56-3.98-4.08-6.1-9.38-5.97-14.91,0-.31.26-.56.57-.56h6.69c.3,0,.55.23.57.54.16,2.57.46,5.3,2.17,7.85,2.7,3.96,7.09,6.43,11.46,6.43,3.91,0,7.56-1.42,10.27-4,2.69-2.56,4.18-5.99,4.18-9.65,0-2.71-.99-5.51-2.8-7.86-1.79-2.34-4.27-4.12-6.98-5-.3-.1-.46-.42-.37-.72.1-.3.42-.46.72-.37,6.12,1.99,10.57,7.86,10.57,13.95,0,3.98-1.61,7.7-4.53,10.48-2.92,2.78-6.85,4.31-11.06,4.31-4.75,0-9.5-2.66-12.41-6.93-1.75-2.61-2.14-5.31-2.32-7.88h-5.59c.02,5.02,2.02,9.81,5.65,13.53,3.91,4.01,9.19,6.22,14.86,6.22s10.9-2.06,14.85-5.79c3.94-3.73,6.11-8.71,6.11-14.01,0-3.32-1.06-6.77-2.97-9.7-1.98-3.03-4.71-5.35-7.9-6.72-.29-.12-.42-.46-.3-.75.12-.29.46-.42.75-.3,3.4,1.46,6.31,3.93,8.41,7.15,2.04,3.12,3.16,6.79,3.16,10.33,0,5.62-2.3,10.9-6.47,14.84-4.16,3.94-9.71,6.11-15.63,6.11Z"/>
    <path class="cls-2" d="m115.26,72.3c-.18,0-.35-.08-.46-.23-.19-.25-.13-.61.12-.8,2.29-1.67,3.85-3.26,4.91-4.99,1.16-1.89,1.72-4,1.72-6.45,0-4.16-1.68-8.07-4.73-11.03-3.07-2.98-7.17-4.63-11.54-4.64h-6.2v5h5.85c3.02,0,5.8,1,7.83,2.82,2.08,1.87,3.23,4.47,3.23,7.34s-1.03,5.46-3.07,7.29c-1.77,1.6-4.28,2.65-7.24,3.04-.31.04-.6-.18-.64-.49s.18-.6.49-.64c8.4-1.11,9.31-6.81,9.31-9.2,0-2.54-1.01-4.84-2.85-6.49-1.82-1.63-4.33-2.53-7.07-2.53h-6.43c-.15,0-.3-.06-.4-.17-.11-.11-.17-.25-.17-.4v-6.15c0-.32.26-.57.57-.57h6.66s.07,0,.1,0h0c4.67.02,9.05,1.78,12.33,4.97,3.27,3.18,5.07,7.38,5.07,11.85,0,5.03-2.13,8.73-7.11,12.36-.1.07-.22.11-.34.11Z"/>
    <path class="cls-2" d="m78.15,128.99c-10.09,0-19.46-3.77-26.4-10.62-6.97-6.88-10.8-16.22-10.8-26.3,0-20.04,16.43-36.35,36.63-36.35,7.53,0,14.59,2.06,20.42,5.94,2.42,1.54,4.9,3.62,7,5.85,2.45,2.6,4.21,5.24,5.1,7.65.06.18.04.37-.07.52s-.28.24-.47.24h-7.53c-.19,0-.37-.1-.48-.26-4.81-7.36-14.19-12.11-23.88-12.11-3.78,0-7.48.79-11.02,2.34-3.38,1.49-6.45,3.61-9.11,6.29-5.39,5.43-8.47,12.67-8.47,19.87,0,7.69,3.09,14.99,8.71,20.54,2.7,2.67,5.82,4.77,9.27,6.24,3.56,1.52,7.29,2.29,11.1,2.29,9.08,0,18.48-4.93,23.94-12.56.12-.17.32-.26.53-.24.02,0,1.88.2,3.58.09,2.2-.15,4.04-.59,4.06-.59.22-.05.45.03.58.2.14.18.16.42.06.62-2.99,5.75-7.85,10.93-13.67,14.58-5.99,3.75-12.59,5.74-19.08,5.74Zm-.57-72.12c-19.57,0-35.49,15.79-35.49,35.2,0,9.77,3.72,18.82,10.46,25.48,6.72,6.63,15.81,10.29,25.59,10.29,6.28,0,12.66-1.92,18.47-5.57,5.29-3.32,9.75-7.93,12.68-13.08-.77.14-1.85.29-3.03.37-1.38.09-2.81,0-3.44-.06-5.7,7.77-15.34,12.77-24.68,12.77-3.96,0-7.84-.8-11.55-2.38-3.58-1.53-6.82-3.71-9.62-6.48-2.82-2.79-5.04-6.02-6.6-9.6-1.63-3.74-2.45-7.69-2.45-11.75,0-7.49,3.21-15.03,8.81-20.67,2.76-2.79,5.95-4.98,9.46-6.53,3.68-1.62,7.54-2.44,11.48-2.44,4.8,0,9.64,1.13,13.99,3.27,4.45,2.19,8.14,5.33,10.67,9.1h6.38c-2.08-4.71-7.23-9.54-11.33-12.16,0,0,0,0,0,0-5.65-3.76-12.49-5.75-19.79-5.75Z"/>
  </g>
  <g>
    <path class="cls-2" d="m14.5,92.04l1.64.97c-.5.6-.83,1.4-.66,2.36.31,1.73,1.81,2.62,3.6,2.3s2.89-1.68,2.58-3.41c-.17-.97-.78-1.62-1.47-2.01l1.2-1.47c1.19.75,1.8,1.79,2.05,3.16.51,2.83-1.22,5.2-4.01,5.7-2.78.5-5.22-1.12-5.73-3.95-.27-1.49.02-2.58.8-3.66Z"/>
    <path class="cls-2" d="m15.93,81.34c1.34-.02,2.3.69,2.79,1.71l3.67-2.29.04,2.31-3.33,2.06.02,1.31,3.37-.06.04,1.98-9.56.17-.07-3.75c-.03-1.83,1.06-3.41,3.04-3.45Zm-1.29,5.19l2.76-.05-.03-1.59c-.02-.94-.51-1.55-1.41-1.54-.88.02-1.37.65-1.35,1.58l.03,1.59Z"/>
    <path class="cls-2" d="m15.79,71.36l-.57,4.15,2.05.28.49-3.59,1.66.23-.49,3.59,2.18.3.58-4.25,1.79.25-.86,6.22-9.47-1.3.84-6.12,1.79.25Z"/>
    <path class="cls-2" d="m26.43,61.76l-.63,2.09-1.6.17-1.06,3.51,1.24,1.03-.63,2.09-7.97-7.24.02-.05,10.64-1.59Zm-4.6,4.72l.7-2.31-3.09.33,2.39,1.99Z"/>
    <path class="cls-2" d="m22.7,51.32l-1.3,2.82,7.1,3.27-.83,1.79-7.1-3.27-1.29,2.81-1.58-.73,3.42-7.43,1.58.73Z"/>
    <path class="cls-2" d="m32.14,50.85l-1.04,1.69-8.14-5.01,1.04-1.7,8.13,5.02Z"/>
    <path class="cls-2" d="m36.28,45.37l-.03.04-10.41-2.54,1.37-1.7,5.88,1.66-2.85-5.41,1.37-1.7,4.67,9.65Z"/>
    <path class="cls-2" d="m40.05,30.32l-3.11,2.81,1.38,1.53,2.69-2.43,1.12,1.25-2.69,2.43,1.47,1.63,3.18-2.88,1.21,1.34-4.66,4.21-6.4-7.09,4.58-4.14,1.21,1.34Z"/>
    <path class="cls-2" d="m52.73,30.97l-1.7,1.04-4.98-8.16,1.7-1.04,4.98,8.16Z"/>
    <path class="cls-2" d="m62.51,26.39l-.05.02-7.39-2.74,2.17,4.87-1.82.81-3.95-8.89.05-.02,7.39,2.74-2.17-4.88,1.82-.81,3.95,8.89Z"/>
    <path class="cls-2" d="m72.23,18.65c.69,2.94-.79,5.1-3.99,5.85l-2.96.7-2.19-9.3,2.96-.7c3.18-.75,5.49.51,6.18,3.45Zm-6.79-1.44l1.36,5.77.96-.23c2.1-.49,2.94-1.81,2.51-3.64-.43-1.84-1.78-2.63-3.87-2.14l-.96.23Z"/>
    <path class="cls-2" d="m82.74,18.92c.17,2.16-.99,3.69-3.39,3.88-2.4.19-3.78-1.14-3.95-3.31l-.47-6.11,1.98-.15.46,5.98c.09,1.14.71,1.88,1.83,1.79,1.11-.09,1.64-.91,1.55-2.05l-.46-5.98,1.97-.15.47,6.11Z"/>
    <path class="cls-2" d="m92.9,14.21l-1.16,1.55c-.54-.51-1.24-.93-2.25-1.02-.84-.07-1.39.23-1.44.93-.04.54.3.85,1.7,1.23,2.42.72,3.13,1.67,3.01,3.14-.15,1.83-1.61,2.95-3.85,2.77-1.45-.12-2.71-.67-3.59-1.57l1.21-1.56c.58.72,1.62,1.25,2.59,1.33,1,.08,1.6-.25,1.66-.95.04-.56-.36-.9-1.75-1.29-2.42-.73-3.08-1.77-2.97-3.17.14-1.71,1.54-2.82,3.59-2.66,1.36.11,2.51.59,3.25,1.27Z"/>
    <path class="cls-2" d="m103.96,17.45l-3.03-.72-1.81,7.61-1.92-.46,1.81-7.61-3.01-.72.4-1.7,7.96,1.89-.4,1.7Z"/>
    <path class="cls-2" d="m113.42,22.58c-.51,1.24-1.55,1.84-2.67,1.88l.64,4.27-2.14-.88-.56-3.88-1.21-.5-1.29,3.11-1.83-.75,3.65-8.83,3.46,1.43c1.69.7,2.71,2.33,1.95,4.16Zm-4.24-3.24l-1.05,2.55,1.47.61c.87.36,1.63.15,1.97-.68.34-.82-.05-1.51-.92-1.87l-1.47-.61Z"/>
    <path class="cls-2" d="m119.27,28.86l-2.06,3.33-1.68-1.04,2.04-3.3.02-6.67,1.96,1.21-.1,4.28,3.79-2,1.96,1.21-5.92,2.97Z"/>
    <path class="cls-2" d="m134.99,36.97l-2.98-2.94-1.45,1.47,2.58,2.54-1.18,1.19-2.58-2.54-1.54,1.56,3.05,3.01-1.27,1.29-4.47-4.41,6.71-6.8,4.4,4.33-1.27,1.29Z"/>
    <path class="cls-2" d="m138.21,45.63l-2.12,5.29-1.35-1.83,1.48-3.73-3.99.33-1.35-1.83,5.68-.48,2.08-5.1,1.36,1.84-1.44,3.51,3.79-.35,1.36,1.84-5.49.5Z"/>
    <path class="cls-2" d="m146.18,56.33c-1.8.93-3.51.09-4.34-1.54l-.84-1.63-2.88,1.48-.91-1.77,8.5-4.38,1.75,3.4c.83,1.62.53,3.5-1.27,4.43Zm-1.09-5.27l-2.57,1.32.75,1.46c.42.82,1.14,1.16,1.99.72.83-.43,1-1.22.57-2.04l-.75-1.46Z"/>
    <path class="cls-2" d="m150.69,64.94l-1.33-3.97-1.96.66,1.16,3.44-1.59.54-1.16-3.44-2.08.7,1.37,4.06-1.71.58-2-5.95,9.05-3.05,1.97,5.85-1.71.58Z"/>
    <path class="cls-2" d="m151.63,75.93c-1.32.23-2.38-.32-3.02-1.25l-3.26,2.84-.4-2.28,2.97-2.56-.23-1.29-3.32.59-.35-1.95,9.41-1.67.65,3.69c.32,1.81-.51,3.54-2.46,3.88Zm.46-5.32l-2.71.48.28,1.56c.16.92.75,1.45,1.63,1.3.87-.15,1.25-.85,1.08-1.78l-.28-1.56Z"/>
    <path class="cls-2" d="m153.41,86.99l-.05-3.11-7.81.12-.03-1.97,7.81-.13-.05-3.09,1.74-.03.13,8.17-1.74.03Z"/>
    <path class="cls-2" d="m151.31,103.11l-1.14-1.53c.69-.37,1.3-.98,1.51-1.93.38-1.71-.66-3.11-2.44-3.5-1.78-.39-3.32.44-3.69,2.16-.21.96.1,1.79.59,2.42l-1.67.9c-.81-1.15-.98-2.34-.68-3.7.61-2.81,3.12-4.33,5.88-3.73,2.75.6,4.39,3.04,3.78,5.84-.32,1.47-1.01,2.37-2.13,3.07Z"/>
    <path class="cls-2" d="m147.46,112l1.51-3.9-1.93-.75-1.31,3.38-1.56-.6,1.31-3.38-2.05-.79-1.55,4-1.68-.65,2.26-5.85,8.91,3.44-2.23,5.76-1.68-.65Z"/>
    <path class="cls-2" d="m141.12,121.08c-1.16-.67-1.62-1.77-1.52-2.89l-4.32.08,1.15-2.01,3.92-.06.65-1.14-2.92-1.68.98-1.71,8.29,4.76-1.86,3.25c-.91,1.59-2.66,2.39-4.37,1.4Zm3.77-3.79l-2.39-1.37-.79,1.38c-.47.81-.36,1.59.42,2.04.77.44,1.51.15,1.97-.67l.79-1.38Z"/>
    <path class="cls-2" d="m135.43,130.71l1.95-2.42-6.09-4.9,1.24-1.54,6.09,4.9,1.94-2.41,1.36,1.09-5.12,6.37-1.36-1.09Z"/>
    <path class="cls-2" d="m126.16,128.85l1.42-1.39,6.67,6.84-1.42,1.39-6.67-6.84Z"/>
    <path class="cls-2" d="m123.85,140.79l3.15-2.45-1.35-1.73-2.62,2.03-1.04-1.33,2.62-2.03-2.37-3.05,1.57-1.22,5.86,7.54-4.72,3.67-1.11-1.43Z"/>
    <path class="cls-2" d="m115.29,137.01l1.7-1.04,4.98,8.15-1.7,1.04-4.98-8.15Z"/>
    <path class="cls-2" d="m108.9,149.39l.54-1.83c.71.34,1.56.46,2.45.06,1.6-.72,2.1-2.39,1.35-4.05-.75-1.66-2.34-2.4-3.94-1.68-.9.41-1.38,1.15-1.59,1.92l-1.72-.81c.44-1.34,1.3-2.18,2.56-2.76,2.62-1.18,5.34-.08,6.51,2.5,1.16,2.57.18,5.34-2.44,6.52-1.38.62-2.51.61-3.74.12Z"/>
    <path class="cls-2" d="m95.24,144.7l2.11-.57.99,1.27,3.54-.96.22-1.59,2.11-.57-1.92,10.59h-.05s-6.99-8.17-6.99-8.17Zm6.44,1.4l-2.34.63,1.91,2.45.42-3.08Z"/>
    <path class="cls-2" d="m88.32,153.34l3.08-.38-.95-7.75,1.96-.24.95,7.75,3.07-.38.21,1.73-8.11,1-.21-1.73Z"/>
    <path class="cls-2" d="m78.63,153.17l4.19.12.06-2.07-3.63-.11.05-1.68,3.63.11.07-2.2-4.29-.13.05-1.81,6.28.19-.28,9.56-6.18-.18.05-1.81Z"/>
  </g>
</svg>